<?xml version="1.0" encoding="utf-8"?>
<!-- Generator: Adobe Illustrator 26.3.1, SVG Export Plug-In . SVG Version: 6.00 Build 0)  -->
<svg version="1.1" id="レイヤー_1" xmlns="http://www.w3.org/2000/svg" xmlns:xlink="http://www.w3.org/1999/xlink" x="0px"
	 y="0px" viewBox="0 0 142 146" style="enable-background:new 0 0 142 146;" xml:space="preserve">
<style type="text/css">
	.st0{fill:#213333;stroke:#213333;stroke-width:1.4;stroke-linecap:round;stroke-linejoin:round;stroke-miterlimit:10;}
	.st1{fill:url(#SVGID_1_);stroke:#213333;stroke-width:1.4;stroke-miterlimit:10;}
	.st2{fill:#FFFFFF;stroke:#213333;stroke-width:1.4;stroke-linecap:round;stroke-linejoin:round;stroke-miterlimit:10;}
	.st3{fill:#213333;}
	.st4{fill:none;stroke:#213333;stroke-width:1.4;stroke-linecap:round;stroke-linejoin:round;stroke-miterlimit:10;}
	
		.st5{fill:url(#SVGID_00000080926992419291948410000013868061031551113909_);stroke:#213333;stroke-width:1.4;stroke-miterlimit:10;}
	
		.st6{fill:url(#SVGID_00000105414857687968983850000001481109038750585743_);stroke:#213333;stroke-width:1.4;stroke-miterlimit:10;}
	
		.st7{fill:url(#SVGID_00000104683061346718106410000008949563314905220752_);stroke:#213333;stroke-width:1.4;stroke-miterlimit:10;}
	
		.st8{fill:url(#SVGID_00000174587067871678633310000016792561117273195160_);stroke:#213333;stroke-width:1.4;stroke-miterlimit:10;}
	
		.st9{fill:url(#SVGID_00000029724357623559920890000002657054461029880761_);stroke:#213333;stroke-width:1.4;stroke-miterlimit:10;}
	
		.st10{fill:url(#SVGID_00000087394728524895418110000012668157724363971216_);stroke:#213333;stroke-width:1.4;stroke-miterlimit:10;}
	
		.st11{fill:url(#SVGID_00000018236680389122552390000015550037547312582786_);stroke:#213333;stroke-width:1.4;stroke-miterlimit:10;}
	.st12{fill:#E2FFB8;}
	.st13{fill:#E2FFB8;stroke:#213333;stroke-width:1.4;stroke-miterlimit:10;}
</style>
<g>
	<path class="st0" d="M101.5,116.6c0-15.1-14-19.5-31.2-19.5s-31.2,4.4-31.2,19.5s14,27.3,31.2,27.3S101.5,131.7,101.5,116.6z"/>
	<linearGradient id="SVGID_1_" gradientUnits="userSpaceOnUse" x1="38.0634" y1="67.3416" x2="103.8618" y2="124.8354">
		<stop  offset="0" style="stop-color:#3CFA50"/>
		<stop  offset="1" style="stop-color:#0096D2"/>
	</linearGradient>
	<path class="st1" d="M113.1,104.4c0,17.9-19.1,30.2-42.8,30.2s-42.8-12.3-42.8-30.2s7.9-52.8,42.8-52.8S113.1,86.5,113.1,104.4z"/>
	<path class="st2" d="M58.5,60.5C50.7,74.4,47.1,87,47.8,98.4c1,15.5,10.4,22.1,22.5,22.1s21.5-6.7,22.5-22.1
		c0.7-11.4-2.9-24-10.7-37.9L58.5,60.5z"/>
	<circle class="st0" cx="118.5" cy="40.9" r="3.2"/>
	<circle class="st3" cx="118.5" cy="16.8" r="3.2"/>
	<line class="st4" x1="118.5" y1="19.9" x2="118.5" y2="37.7"/>
	<circle class="st0" cx="22.1" cy="40.9" r="3.2"/>
	<circle class="st3" cx="22.1" cy="16.8" r="3.2"/>
	
		<linearGradient id="SVGID_00000145744766012713285280000015045225053563447698_" gradientUnits="userSpaceOnUse" x1="33.7896" y1="25.9037" x2="33.7896" y2="53.5892">
		<stop  offset="0" style="stop-color:#3CFA50"/>
		<stop  offset="1" style="stop-color:#0096D2"/>
	</linearGradient>
	
		<ellipse style="fill:url(#SVGID_00000145744766012713285280000015045225053563447698_);stroke:#213333;stroke-width:1.4;stroke-miterlimit:10;" cx="33.8" cy="40.9" rx="11.7" ry="14.4"/>
	
		<linearGradient id="SVGID_00000021105432816859887840000004358325498552832191_" gradientUnits="userSpaceOnUse" x1="106.8661" y1="25.9037" x2="106.8661" y2="53.5892">
		<stop  offset="0" style="stop-color:#3CFA50"/>
		<stop  offset="1" style="stop-color:#0096D2"/>
	</linearGradient>
	
		<ellipse style="fill:url(#SVGID_00000021105432816859887840000004358325498552832191_);stroke:#213333;stroke-width:1.4;stroke-miterlimit:10;" cx="106.9" cy="40.9" rx="11.7" ry="14.4"/>
	
		<linearGradient id="SVGID_00000062900112836996325140000011133550321702323876_" gradientUnits="userSpaceOnUse" x1="43.8976" y1="13.4187" x2="97.0065" y2="64.5484">
		<stop  offset="0" style="stop-color:#8CFF5A"/>
		<stop  offset="0.9997" style="stop-color:#00BEFF"/>
	</linearGradient>
	
		<path style="fill:url(#SVGID_00000062900112836996325140000011133550321702323876_);stroke:#213333;stroke-width:1.4;stroke-miterlimit:10;" d="
		M109.5,41.2c0,21.6-17.5,28-39.2,28s-39.2-6.4-39.2-28S48.7,2,70.3,2S109.5,19.6,109.5,41.2z"/>
	
		<linearGradient id="SVGID_00000112594805469748183620000003266468754483950504_" gradientUnits="userSpaceOnUse" x1="82.7427" y1="38.0026" x2="82.7427" y2="24.0587">
		<stop  offset="0.3" style="stop-color:#FFFAFF"/>
		<stop  offset="1" style="stop-color:#466E00"/>
	</linearGradient>
	
		<path style="fill:url(#SVGID_00000112594805469748183620000003266468754483950504_);stroke:#213333;stroke-width:1.4;stroke-miterlimit:10;" d="
		M82.7,38.2L82.7,38.2c-2.1,0-3.8-1.7-3.8-3.8v-7.2c0-2.1,1.7-3.8,3.8-3.8h0c2.1,0,3.8,1.7,3.8,3.8v7.2
		C86.6,36.5,84.9,38.2,82.7,38.2z"/>
	
		<linearGradient id="SVGID_00000160183586821709324500000015111232489058215814_" gradientUnits="userSpaceOnUse" x1="55.4645" y1="38.0026" x2="55.4645" y2="24.0587">
		<stop  offset="0.3" style="stop-color:#FFFAFF"/>
		<stop  offset="1" style="stop-color:#466E00"/>
	</linearGradient>
	
		<path style="fill:url(#SVGID_00000160183586821709324500000015111232489058215814_);stroke:#213333;stroke-width:1.4;stroke-miterlimit:10;" d="
		M55.5,38.2L55.5,38.2c-2.1,0-3.9-1.7-3.9-3.8v-7.2c0-2.1,1.7-3.8,3.8-3.8h0c2.1,0,3.8,1.7,3.8,3.8v7.2
		C59.3,36.5,57.6,38.2,55.5,38.2z"/>
	<line class="st4" x1="22.1" y1="19.9" x2="22.1" y2="37.7"/>
	<g>
		
			<linearGradient id="SVGID_00000025445234326709016000000016551190848663562897_" gradientUnits="userSpaceOnUse" x1="103.8929" y1="72.2369" x2="130.6123" y2="110.1719">
			<stop  offset="0" style="stop-color:#8CFF5A"/>
			<stop  offset="0.9997" style="stop-color:#00BEFF"/>
		</linearGradient>
		
			<path style="fill:url(#SVGID_00000025445234326709016000000016551190848663562897_);stroke:#213333;stroke-width:1.4;stroke-miterlimit:10;" d="
			M136.2,103.1c-6.1-10.9-16.8-24.8-24.4-30.1c-8.5-5.9-11.3,0-7.3,6.7c5.4,9,12.4,24,18.5,35.6
			C130.7,112.9,135.2,108.3,136.2,103.1z"/>
		<path class="st0" d="M136.2,103.1c-1,5.2-5.5,9.7-13.3,12.2c0.1,0.2,0.2,0.4,0.3,0.6c6.8,13.1,23,7.3,15-9
			C137.7,105.7,137,104.5,136.2,103.1z"/>
	</g>
	<g>
		
			<linearGradient id="SVGID_00000032635085071645371210000002650282986775930754_" gradientUnits="userSpaceOnUse" x1="37.5633" y1="72.4974" x2="11.5037" y2="110.1025">
			<stop  offset="0" style="stop-color:#8CFF5A"/>
			<stop  offset="0.9997" style="stop-color:#00BEFF"/>
		</linearGradient>
		
			<path style="fill:url(#SVGID_00000032635085071645371210000002650282986775930754_);stroke:#213333;stroke-width:1.4;stroke-miterlimit:10;" d="
			M5.8,103.1c6.1-10.9,16.8-24.8,24.4-30.1c8.5-5.9,11.3,0,7.3,6.7c-5.4,9-12.4,24-18.5,35.6C11.3,112.9,6.8,108.3,5.8,103.1z"/>
		<path class="st0" d="M5.8,103.1c1,5.2,5.5,9.7,13.3,12.2c-0.1,0.2-0.2,0.4-0.3,0.6c-6.8,13.1-23,7.3-15-9
			C4.3,105.7,5,104.5,5.8,103.1z"/>
	</g>
	<path class="st12" d="M106.5,51.6h-9c-2.6,0-4.7-2.1-4.7-4.7v0c0-2.6,2.1-4.7,4.7-4.7h9c2.6,0,4.7,2.1,4.7,4.7v0
		C111.2,49.5,109.1,51.6,106.5,51.6z"/>
	<path class="st12" d="M42.2,51.6h-9c-2.6,0-4.7-2.1-4.7-4.7v0c0-2.6,2.1-4.7,4.7-4.7h9c2.6,0,4.7,2.1,4.7,4.7v0
		C46.9,49.5,44.8,51.6,42.2,51.6z"/>
	<path class="st13" d="M75.5,96.4H65.1c-1.4,0-2.6-1.2-2.6-2.6l0,0c0-1.4,1.2-2.6,2.6-2.6h10.4c1.4,0,2.6,1.2,2.6,2.6l0,0
		C78.2,95.2,77,96.4,75.5,96.4z"/>
	<path class="st13" d="M72.7,84.2h-4.8c-1.4,0-2.6-1.2-2.6-2.6v0c0-1.4,1.2-2.6,2.6-2.6h4.8c1.4,0,2.6,1.2,2.6,2.6v0
		C75.3,83,74.2,84.2,72.7,84.2z"/>
	<path class="st13" d="M77.5,108.5H63.2c-1.4,0-2.6-1.2-2.6-2.6v0c0-1.4,1.2-2.6,2.6-2.6h14.3c1.4,0,2.6,1.2,2.6,2.6v0
		C80.1,107.4,78.9,108.5,77.5,108.5z"/>
</g>
</svg>
